<?xml version="1.0" encoding="UTF-8"?>
<svg id="Calque_1" data-name="Calque 1" xmlns="http://www.w3.org/2000/svg" viewBox="0 0 192 192">
  <defs>
    <style>
      .cls-1 {
        fill: #fcfefd;
      }

      .cls-2 {
        fill: #fff;
      }

      .cls-3 {
        fill: #1a191e;
      }
    </style>
  </defs>
  <rect class="cls-3" y="0" width="192" height="192"/>
  <g>
    <path class="cls-1" d="M112.3,32.79v11.22c-3.07-.36-6.09-1.46-9.18-1.86-23.33-3.01-46.48,10.09-55.99,31.52-7.56,17.05-5.5,37.12,4.95,52.44l-5.25,19.27,1.6-.08,18.4-4.8,6.56,3.57c30.4,14.59,68.1-3.88,75.11-36.76,1.91-8.97,1.72-18.27-1.03-27.03h11.6c-.02,1.35.49,2.64.74,3.94,1.27,6.86,1.43,13.22.38,20.18-6.77,44.7-54.86,69.19-94.88,47.77l-34.17,8.92,9.01-33.11c-1.26-3.21-3.09-6.25-4.33-9.54-10.79-28.63-.23-60.93,25.5-77.38,15.19-9.71,33.49-12.49,51.01-8.29Z"/>
    <polygon class="cls-1" points="143.73 48.13 158.69 48.13 158.69 59.35 143.73 59.35 143.73 74.5 143.17 75.06 133.07 75.06 132.51 74.5 132.51 59.35 117.54 59.35 117.54 48.13 132.51 48.13 132.51 32.98 133.07 32.42 143.17 32.42 143.73 32.98 143.73 48.13"/>
  </g>
  <path class="cls-2" d="M116.24,83.72c.1-2.42,1.89-2.63,3.89-2.31,4.89.78,2.94,4.7-.56,5.47.64.72,1.35,1.38,2.02,2.07,1.96,1.99,3.5,4.33,3.74,7.24.19,2.39.18,6.43,0,8.82-.11,1.55-.87,3.01-1.88,4.15.06,2.36.33,5.7-2.85,5.97-1.14.1-3.56.12-4.68,0-1.81-.2-2.93-2.06-2.74-3.78h-34.38c.28,1.76-.92,3.6-2.75,3.78-1.04.1-3.94.13-4.93-.02-2.88-.45-2.65-3.85-2.6-6.03-1.18-1.25-1.77-2.9-1.88-4.6-.16-2.57-.23-7.65.41-10.04.87-3.21,2.94-5.3,5.35-7.43.03-.19-.03-.11-.12-.14-.43-.17-.79-.25-1.23-.48-2.59-1.41-3.08-4.07.27-4.86,2.05-.48,4.41-.48,4.45,2.2l5.72-5.44c1.07-.82,2.32-1.29,3.65-1.48h21.59c1.45.16,2.75.71,3.9,1.57l5.59,5.35ZM115.88,87.68c-.61-.78-1.42-1.39-2.12-2.07-1.41-1.37-4.34-4.7-5.98-5.36-.4-.16-.86-.3-1.3-.32l-21.38.04c-.98.2-1.78.69-2.52,1.35l-6.39,6.35h39.69ZM71.94,92.48c-3.32.39-3.84,5.31-.63,6.43,1.01.35,4.28.28,5.47.2,1.5-.09,4.24-.48,2.69-2.52-1.2-1.57-5.55-4.36-7.53-4.12ZM119.37,92.47c-1.74.23-6.12,2.9-6.98,4.45-.36.65-.46,1.08.22,1.54,1.16.79,5.79.78,7.27.64,4.5-.4,3.6-7.18-.52-6.63ZM109.4,96.77h-26.82c.08,2.15.85,4.77,3.13,5.47l20.8-.04c2.11-.79,2.95-3.34,2.9-5.43Z"/>
</svg>