<?xml version="1.0" encoding="UTF-8"?>
<svg version="1.1" xmlns="http://www.w3.org/2000/svg" width="1024" height="1024">
<path d="M0 0 C0.86998326 -0.00297112 1.73996652 -0.00594224 2.6363129 -0.0090034 C5.53928501 -0.01764578 8.44221566 -0.01919487 11.34519958 -0.02069092 C13.43186531 -0.02532231 15.51853019 -0.0303474 17.60519409 -0.03573608 C23.26669575 -0.04883251 28.92818555 -0.05529984 34.58969998 -0.05974674 C38.1311714 -0.06268236 41.67263962 -0.06678813 45.21410942 -0.07125092 C56.30716803 -0.08491956 67.40021927 -0.0945889 78.49328572 -0.09845281 C91.27478668 -0.10292992 104.05618052 -0.12046447 116.83764893 -0.1494534 C126.73262135 -0.17111222 136.62756372 -0.18115935 146.52255958 -0.18249393 C152.42507072 -0.18353908 158.32748106 -0.18938511 164.22996712 -0.20731354 C169.78762995 -0.22386656 175.345117 -0.22591475 180.90279579 -0.21717453 C182.93358584 -0.21640798 184.96438563 -0.22069604 186.99515152 -0.23063278 C201.18981976 -0.29597083 214.5991553 0.16736262 227.50315857 6.82794189 C228.15542419 7.14827393 228.80768982 7.46860596 229.47972107 7.79864502 C231.03610165 8.56539133 232.58331403 9.35071044 234.12815857 10.14044189 C234.12815857 10.80044189 234.12815857 11.46044189 234.12815857 12.14044189 C234.83714294 12.36860596 235.54612732 12.59677002 236.27659607 12.83184814 C239.74649951 14.42420109 241.97111143 16.46461729 244.75315857 19.07794189 C245.27168396 19.56230713 245.79020935 20.04667236 246.32444763 20.54571533 C250.86360121 24.81477963 255.24338548 29.23706542 259.62425232 33.66778564 C261.67419918 35.69214815 263.74456292 37.59255513 265.94065857 39.45294189 C270.5415656 43.37082767 274.71698293 47.70361204 278.96385193 51.9956665 C283.18683843 56.24619048 287.50576436 60.32194233 292.12815857 64.14044189 C292.34729919 63.26001221 292.56643982 62.37958252 292.79222107 61.47247314 C296.00936967 49.68933946 296.00936967 49.68933946 302.12815857 46.14044189 C307.56219884 43.81513938 312.68706897 43.75592866 318.50315857 43.76544189 C319.47253357 43.76632812 320.44190857 43.76721436 321.44065857 43.76812744 C332.38145169 43.94584316 342.38628264 45.9576451 352.12815857 51.14044189 C352.12815857 51.80044189 352.12815857 52.46044189 352.12815857 53.14044189 C352.74175232 53.23454346 353.35534607 53.32864502 353.98753357 53.42559814 C356.66382269 54.31932243 357.1191855 55.09496723 358.37815857 57.57794189 C360.95695818 63.34171315 361.25697489 68.70717565 359.28050232 74.71856689 C353.57580037 87.3269251 341.79138706 95.35655558 329.12815857 100.14044189 C329.79202576 100.73212158 330.45589294 101.32380127 331.13987732 101.93341064 C337.23991031 107.39227228 343.00857606 112.74096376 348.12815857 119.14044189 C350.54354991 121.61776634 353.00980183 124.0273239 355.51097107 126.41778564 C376.80889866 148.57398793 382.64227028 178.62354091 382.52659607 208.14825439 C382.52862547 210.01234042 382.53154403 211.87642567 382.53529358 213.74050903 C382.53967409 217.61462085 382.5334243 221.48852278 382.51927185 225.36260986 C382.50215848 230.28188801 382.51206232 235.20067562 382.52998924 240.11993599 C382.5409233 243.95854265 382.53733748 247.79703642 382.52960587 251.63564682 C382.52763157 253.44779395 382.5299633 255.25995197 382.53704453 257.07208633 C382.58020884 271.21074962 382.31321309 286.00874808 375.31565857 298.70294189 C374.99790466 299.33522705 374.68015076 299.96751221 374.35276794 300.61895752 C372.5453608 304.07398138 370.77636134 306.47743211 367.90940857 309.11700439 C363.14871614 314.4663079 364.35458015 322.20759297 364.44065857 328.95294189 C364.51030155 341.97617858 364.33996434 353.03565496 355.12815857 363.14044189 C349.12137552 368.83107846 341.70075884 372.23214035 333.42649841 372.30157471 C332.49808136 372.31118225 331.56966431 372.32078979 330.6131134 372.33068848 C329.11622482 372.33706329 329.11622482 372.33706329 327.58909607 372.34356689 C326.55306244 372.34926697 325.51702881 372.35496704 324.44960022 372.36083984 C322.25571206 372.37028302 320.06180976 372.37682111 317.86790466 372.38067627 C314.53642975 372.39034533 311.20558156 372.42136064 307.87425232 372.45294189 C305.73753721 372.45947613 303.60081771 372.46472495 301.46409607 372.46856689 C300.47831573 372.4809137 299.4925354 372.4932605 298.47688293 372.50598145 C288.52452196 372.47445282 279.74450917 370.46054543 272.35081482 363.45684814 C264.00711268 354.68978691 263.12815857 347.56675282 263.12815857 335.14044189 C154.55815857 335.14044189 45.98815857 335.14044189 -65.87184143 335.14044189 C-66.20184143 339.43044189 -66.53184143 343.72044189 -66.87184143 348.14044189 C-69.3925029 356.38106594 -72.90651713 363.02159757 -80.37184143 367.71075439 C-86.11741866 370.70324253 -91.18276556 372.24684413 -97.68702698 372.30157471 C-98.6153685 372.31118225 -99.54371002 372.32078979 -100.50018311 372.33068848 C-101.98932976 372.33706329 -101.98932976 372.33706329 -103.50856018 372.34356689 C-105.0604882 372.352117 -105.0604882 372.352117 -106.64376831 372.36083984 C-108.83168013 372.37027321 -111.01960604 372.37681721 -113.20753479 372.38067627 C-116.53013884 372.39035681 -119.85211743 372.42138631 -123.17457581 372.45294189 C-125.30673362 372.45947522 -127.43889582 372.46472439 -129.57106018 372.46856689 C-131.0450251 372.4870871 -131.0450251 372.4870871 -132.54876709 372.50598145 C-143.4705495 372.47126344 -150.86455697 370.04993889 -158.73902893 362.40997314 C-165.0945772 355.64701794 -167.15981651 349.00219669 -166.96949768 339.65997314 C-166.96543089 338.23354531 -166.96354828 336.8071099 -166.96363831 335.38067627 C-166.95558173 333.17244298 -166.93474026 330.96780457 -166.87550354 328.76031494 C-166.62731356 318.46908847 -167.65076957 312.64114851 -174.6552887 304.69927979 C-186.00427639 291.59775538 -185.32897562 272.51429152 -185.27027893 256.24591064 C-185.27230595 254.24398188 -185.27522258 252.24205384 -185.27897644 250.24012756 C-185.28337333 246.06384179 -185.2770564 241.88774986 -185.26295471 237.71148682 C-185.24589811 232.40657884 -185.25569876 227.10212758 -185.2736721 221.79723644 C-185.28461031 217.66777728 -185.2810175 213.53842299 -185.27328873 209.40896034 C-185.27131258 207.45529435 -185.27365303 205.50161828 -185.28072739 203.5479641 C-185.3273696 187.04754754 -184.15223421 171.72560881 -177.37184143 156.45294189 C-176.98125549 155.53061768 -176.59066956 154.60829346 -176.18824768 153.65802002 C-174.22995312 149.07218208 -172.16323528 144.56900116 -169.87184143 140.14044189 C-169.21184143 140.14044189 -168.55184143 140.14044189 -167.87184143 140.14044189 C-167.61016174 139.40696533 -167.34848206 138.67348877 -167.07887268 137.91778564 C-165.85525767 135.10228315 -164.47684491 133.08812915 -162.55934143 130.70294189 C-161.93285706 129.92305908 -161.30637268 129.14317627 -160.66090393 128.33966064 C-159.77531799 127.25104736 -159.77531799 127.25104736 -158.87184143 126.14044189 C-157.66527893 124.59356689 -157.66527893 124.59356689 -156.43434143 123.01544189 C-153.89823913 120.17005882 -151.23692871 117.81326608 -148.34059143 115.35137939 C-142.95414677 110.52744319 -137.94823404 105.28648013 -132.87184143 100.14044189 C-135.69743931 98.25670997 -138.4214873 96.93789251 -141.49684143 95.51544189 C-150.84668922 90.85181009 -157.96875383 84.45630834 -162.87184143 75.14044189 C-164.59597735 69.64013099 -164.67307647 64.30726873 -162.37184143 59.01544189 C-157.79635801 50.94105939 -150.50056629 48.33685841 -141.92262268 45.90216064 C-135.36906464 44.26586895 -129.29954823 43.89189073 -122.55934143 43.82794189 C-121.55193909 43.79893799 -120.54453674 43.76993408 -119.50660706 43.74005127 C-113.13402924 43.68608156 -108.12078112 44.31768915 -102.87184143 48.14044189 C-99.44508716 51.58297208 -97.70278291 55.29070794 -96.23512268 59.87872314 C-95.97642395 60.67963379 -95.71772522 61.48054443 -95.45118713 62.3057251 C-95.26000305 62.91118164 -95.06881897 63.51663818 -94.87184143 64.14044189 C-94.39875549 63.66211914 -93.92566956 63.18379639 -93.43824768 62.690979 C-91.25219737 60.48388849 -89.06205014 58.28090557 -86.87184143 56.07794189 C-86.12805237 55.32577393 -85.38426331 54.57360596 -84.61793518 53.79864502 C-80.46810526 49.63077236 -76.23211092 45.65735659 -71.77418518 41.82232666 C-68.66239916 39.07115958 -65.77614386 36.10724665 -62.87184143 33.14044189 C-58.54329873 28.76113126 -54.19074318 24.50470882 -49.47731018 20.53497314 C-47.94244897 19.20177253 -46.52711981 17.73459657 -45.12184143 16.26544189 C-42.92187594 14.18769671 -41.83091167 13.46922748 -38.87184143 13.14044189 C-38.87184143 12.48044189 -38.87184143 11.82044189 -38.87184143 11.14044189 C-25.87551984 4.39270735 -14.9047303 -0.01608859 0 0 Z M-14.87184143 35.14044189 C-16.38644958 35.77961548 -16.38644958 35.77961548 -17.93165588 36.43170166 C-24.73372109 40.08440334 -29.78843604 44.47208047 -35.05934143 50.07794189 C-36.55033945 51.63111881 -38.04380708 53.18192898 -39.53981018 54.73028564 C-40.26950012 55.4863208 -40.99919006 56.24235596 -41.75099182 57.02130127 C-43.64903802 58.91781801 -45.58823522 60.67886831 -47.62965393 62.41778564 C-53.59480649 67.526668 -59.0310636 73.19452126 -64.55934143 78.76544189 C-65.684756 79.8958857 -66.81040555 81.02609562 -67.93629456 82.15606689 C-70.0043989 84.23226428 -72.07112935 86.30980779 -74.13624573 88.38897705 C-75.03899231 89.29696045 -75.94173889 90.20494385 -76.87184143 91.14044189 C-77.76322815 92.03779053 -78.65461487 92.93513916 -79.57301331 93.85968018 C-82.61623088 96.87898121 -85.84251414 99.65985116 -89.07887268 102.46856689 C-89.67055237 103.02028564 -90.26223206 103.57200439 -90.87184143 104.14044189 C-90.87184143 104.47044189 -90.87184143 104.80044189 -90.87184143 105.14044189 C33.86815857 105.14044189 158.60815857 105.14044189 287.12815857 105.14044189 C280.79583768 97.65075776 280.79583768 97.65075776 273.56565857 91.14044189 C270.98338804 89.02165582 269.17925771 86.76841267 267.12815857 84.14044189 C264.21700093 81.05803969 261.1200569 78.25059429 257.94065857 75.45294189 C251.95608782 70.11632467 246.34752894 64.41429134 240.7250824 58.70025635 C236.57967191 54.50764092 232.3618819 50.48812989 227.87742615 46.65875244 C226.17644549 45.18235346 224.55785675 43.64497152 222.94065857 42.07794189 C214.28621527 34.64271578 203.8734776 31.98767182 192.77362061 32 C191.93519235 31.99702888 191.0967641 31.99405776 190.23292893 31.9909966 C187.42496474 31.98232874 184.61704328 31.98080296 181.80906677 31.97930908 C179.79502268 31.97467953 177.78097946 31.96965468 175.76693726 31.96426392 C170.29566234 31.95115054 164.82439968 31.94469695 159.35311151 31.94025326 C155.93329405 31.93732063 152.51347994 31.93321544 149.09366417 31.92874908 C138.38931237 31.91507653 127.68496821 31.90540887 116.98060828 31.90154719 C104.63258949 31.89706785 92.28468147 31.87952463 79.93669635 31.8505466 C70.38662214 31.82891427 60.83657905 31.81884207 51.28648061 31.81750607 C45.58527471 31.8164591 39.88417299 31.81057417 34.18299294 31.79268646 C28.81742864 31.77617918 23.45204651 31.77406324 18.08646584 31.78282547 C16.12172456 31.78359444 14.15697339 31.77927173 12.19225693 31.76936722 C-1.63621207 31.54289328 -1.63621207 31.54289328 -14.87184143 35.14044189 Z M-152.87184143 164.14044189 C-154.40318521 166.85870981 -154.40318521 166.85870981 -154.87184143 169.14044189 C-155.53184143 169.14044189 -156.19184143 169.14044189 -156.87184143 169.14044189 C-160.1363021 178.27315926 -161.44646799 186.62037342 -157.98902893 195.90606689 C-154.40681799 203.07048877 -148.56989932 210.51484162 -140.93434143 213.32794189 C-119.04232515 220.53684338 -84.06998943 219.3781199 -62.61402893 210.30059814 C-60.42229999 208.84108358 -59.23664003 207.38883351 -57.87184143 205.14044189 C-57.2665151 199.69250491 -57.95672923 197.3777341 -61.23512268 192.94512939 C-67.21391085 186.03483052 -73.98555881 179.8185056 -81.87184143 175.14044189 C-82.53184143 175.14044189 -83.19184143 175.14044189 -83.87184143 175.14044189 C-83.87184143 174.48044189 -83.87184143 173.82044189 -83.87184143 173.14044189 C-118.49281258 150.9037131 -118.49281258 150.9037131 -152.87184143 164.14044189 Z M256.87815857 194.82794189 C254.54764817 199.23926516 254.25371839 201.21177906 255.12815857 206.14044189 C259.60929556 210.8109227 263.61950375 212.20637206 269.87815857 213.39044189 C270.99964294 213.63020752 270.99964294 213.63020752 272.14378357 213.87481689 C282.31946164 215.96570965 292.42039465 216.32695719 302.78538513 216.32574463 C304.86079167 216.32792366 306.93565845 216.3461267 309.01097107 216.36505127 C324.01549673 216.42906185 337.81758489 215.94832341 349.12815857 205.14044189 C354.52416947 199.29987328 356.95314934 192.22270998 357.22581482 184.30450439 C356.67046129 174.63322577 353.12562786 166.84051874 346.12815857 160.14044189 C339.87522909 155.24684491 333.08620467 152.3934918 325.08518982 152.66387939 C300.56226273 156.61605523 272.33132073 175.63256097 256.87815857 194.82794189 Z M-29.87184143 194.14044189 C-29.87184143 209.51987995 -26.46386982 225.15592276 -15.46168518 236.68341064 C-7.47703756 244.0010361 -0.5304998 246.45816597 10.35665894 246.40113831 C11.14526985 246.40496385 11.93388076 246.4087894 12.74638897 246.41273087 C15.36777414 246.42298367 17.9889371 246.41908354 20.6103363 246.4151001 C22.49836935 246.41945082 24.38640064 246.42463517 26.27442932 246.43058777 C31.38805315 246.44394946 36.50160294 246.44455964 41.61524081 246.44202447 C45.88956451 246.44095295 50.16387335 246.4458427 54.43819386 246.45062989 C64.52406911 246.46171505 74.60990712 246.4621679 84.69578552 246.45611572 C95.08977144 246.45007446 105.48362204 246.46239313 115.87758487 246.48368579 C124.81285349 246.50131504 133.74807909 246.5073011 142.68336445 246.50404805 C148.0150461 246.50223735 153.34663119 246.50485028 158.67829704 246.51876259 C163.69262194 246.531358 168.70673615 246.52938055 173.72105789 246.5163517 C175.55721293 246.51399021 177.39338287 246.51670525 179.2295208 246.52497482 C192.13100268 246.57887374 201.93127584 246.27644761 211.70237732 236.83966064 C223.15410304 224.09708018 225.61317799 210.80522829 227.12815857 194.14044189 C142.31815857 194.14044189 57.50815857 194.14044189 -29.87184143 194.14044189 Z " fill="#FDFDFD" transform="translate(406.87184143066406,451.85955810546875)"/>
<path d="M0 0 C3.03965216 2.1334917 5.8447714 4.39377906 8.66796875 6.8046875 C14.05145017 11.36040194 19.58328216 15.68325309 25.1953125 19.953125 C28.90196353 22.78908619 32.52577625 25.67399829 36.04296875 28.7421875 C39.62539193 31.82967063 43.32509398 34.75832513 47.04296875 37.6796875 C47.65213135 38.15857422 48.26129395 38.63746094 48.88891602 39.13085938 C52.21034853 41.73043567 55.56607978 44.26508177 58.98046875 46.7421875 C60.01171875 47.5465625 61.04296875 48.3509375 62.10546875 49.1796875 C62.10546875 49.8396875 62.10546875 50.4996875 62.10546875 51.1796875 C62.85183594 51.44007812 63.59820313 51.70046875 64.3671875 51.96875 C67.17467002 53.21029006 68.72523566 54.43787389 70.91796875 56.5546875 C75.80731334 61.06475747 81.06083592 64.9704573 86.43286133 68.87841797 C90.33397047 71.7431983 93.73199262 74.7138717 97.10546875 78.1796875 C97.76546875 78.5096875 98.42546875 78.8396875 99.10546875 79.1796875 C101.10546875 80.1796875 101.10546875 80.1796875 103.33984375 82.4375 C106.1728343 85.24648216 109.17415362 87.66503822 112.35546875 90.0546875 C112.92031982 90.48523438 113.4851709 90.91578125 114.06713867 91.359375 C116.68670807 93.35608634 119.31678693 95.33795873 121.953125 97.3125 C122.76652344 97.92867188 123.57992187 98.54484375 124.41796875 99.1796875 C125.49498047 99.9840625 125.49498047 99.9840625 126.59375 100.8046875 C127.09261719 101.2584375 127.59148438 101.7121875 128.10546875 102.1796875 C128.10546875 102.8396875 128.10546875 103.4996875 128.10546875 104.1796875 C128.85183594 104.44007813 129.59820313 104.70046875 130.3671875 104.96875 C133.17467002 106.21029006 134.72523566 107.43787389 136.91796875 109.5546875 C141.79298853 114.04397339 147.01568921 117.95358127 152.3449707 121.87841797 C157.46069487 125.65357775 162.31861851 129.61619354 167.10546875 133.8046875 C170.66898552 136.8682008 174.34905227 139.77621272 178.04296875 142.6796875 C178.9568335 143.39813843 178.9568335 143.39813843 179.88916016 144.13110352 C183.21054832 146.73054795 186.5661733 149.26514962 189.98046875 151.7421875 C191.01171875 152.5465625 192.04296875 153.3509375 193.10546875 154.1796875 C193.10546875 154.8396875 193.10546875 155.4996875 193.10546875 156.1796875 C193.85183594 156.44007813 194.59820313 156.70046875 195.3671875 156.96875 C198.17467002 158.21029006 199.72523566 159.43787389 201.91796875 161.5546875 C206.79298853 166.04397339 212.01568921 169.95358127 217.3449707 173.87841797 C222.67292315 177.81019207 227.74978259 181.92826774 232.66796875 186.3671875 C236.17974188 189.45512595 239.83119938 192.33803141 243.54296875 195.1796875 C244.37683105 195.81813599 244.37683105 195.81813599 245.22753906 196.46948242 C247.79038161 198.4261459 250.36101308 200.37116975 252.94140625 202.3046875 C254.16730469 203.2328125 254.16730469 203.2328125 255.41796875 204.1796875 C256.49498047 204.9840625 256.49498047 204.9840625 257.59375 205.8046875 C258.09261719 206.2584375 258.59148438 206.7121875 259.10546875 207.1796875 C259.10546875 207.8396875 259.10546875 208.4996875 259.10546875 209.1796875 C259.85183594 209.44007813 260.59820313 209.70046875 261.3671875 209.96875 C264.17467002 211.21029006 265.72523566 212.43787389 267.91796875 214.5546875 C272.79298853 219.04397339 278.01568921 222.95358127 283.3449707 226.87841797 C288.46069487 230.65357775 293.31861851 234.61619354 298.10546875 238.8046875 C304.50835988 244.30695218 311.26115203 249.4039125 317.91845703 254.59277344 C324.07475576 259.39317053 330.19283205 264.21710539 336.16796875 269.2421875 C341.3978435 273.63780609 346.75982329 277.81757311 352.1953125 281.953125 C367.83376181 293.91811307 367.83376181 293.91811307 370.10546875 303.1796875 C370.95013115 311.02922252 369.3279807 316.96939247 364.85546875 323.4296875 C359.53770615 328.7474501 354.33420383 330.76510563 346.91796875 331.4921875 C337.47032313 330.71779032 331.55213457 326.20948771 324.71411133 320.10205078 C318.45647542 314.51478552 311.78281667 309.56548817 305.03076172 304.59741211 C302.94306552 303.06009892 300.85783133 301.51971567 298.77734375 299.97265625 C298.13120117 299.4933667 297.48505859 299.01407715 296.81933594 298.52026367 C294.74367144 296.89669191 292.93149994 295.07595066 291.10546875 293.1796875 C290.44546875 292.8496875 289.78546875 292.5196875 289.10546875 292.1796875 C289.10546875 291.5196875 289.10546875 290.8596875 289.10546875 290.1796875 C288.57179688 289.94507813 288.038125 289.71046875 287.48828125 289.46875 C284.40822284 287.80248889 281.72786861 285.70767271 278.98046875 283.5546875 C278.40498291 283.10738281 277.82949707 282.66007812 277.23657227 282.19921875 C275.52255686 280.86395581 273.81309477 279.52310851 272.10546875 278.1796875 C271.23019531 277.49132812 270.35492187 276.80296875 269.453125 276.09375 C265.00856491 272.56403453 260.63811855 268.9559783 256.29296875 265.3046875 C248.03764585 258.39869023 239.49860244 251.85488033 230.7890625 245.53125 C229.10546875 244.1796875 229.10546875 244.1796875 227.2890625 242.33203125 C224.61072341 239.69202259 221.7001141 237.41393877 218.73046875 235.1171875 C217.47525477 234.13802808 216.2200466 233.1588612 214.96484375 232.1796875 C213.67845658 231.17959596 212.39199897 230.17959502 211.10546875 229.1796875 C203.35797093 223.14741112 195.70477703 217.04113883 188.18359375 210.7265625 C184.77938919 207.90988563 181.33013936 205.15859548 177.85546875 202.4296875 C176.96964111 201.7337146 176.96964111 201.7337146 176.06591797 201.02368164 C172.82955481 198.49319381 169.55509116 196.03135678 166.23046875 193.6171875 C165.19921875 192.8128125 164.16796875 192.0084375 163.10546875 191.1796875 C163.10546875 190.5196875 163.10546875 189.8596875 163.10546875 189.1796875 C162.35910156 188.91929687 161.61273437 188.65890625 160.84375 188.390625 C158.03626748 187.14908494 156.48570184 185.92150111 154.29296875 183.8046875 C150.1239659 179.96334875 145.72826102 176.59470451 141.16796875 173.2421875 C136.62573848 169.89275556 132.23945534 166.53387804 128.10546875 162.6796875 C122.11685635 157.10652875 115.50034373 152.38220557 108.92773438 147.53076172 C106.52905762 145.75232159 104.15559065 143.94320083 101.79296875 142.1171875 C101.13683594 141.61058594 100.48070312 141.10398438 99.8046875 140.58203125 C98.10546875 139.1796875 98.10546875 139.1796875 96.76171875 137.80078125 C94.32420835 135.41501045 91.61203062 133.38846952 88.91796875 131.3046875 C82.73824111 126.4952259 76.65021697 121.58283341 70.61254883 116.59619141 C67.78616023 114.27867537 65.01230954 112.11869589 61.94921875 110.11328125 C58.93930847 108.06670764 56.65760118 105.76715715 54.10546875 103.1796875 C51.94987019 101.37975596 49.72185611 99.68346266 47.48046875 97.9921875 C46.908125 97.55455078 46.33578125 97.11691406 45.74609375 96.66601562 C43.24187135 94.75872996 40.72548074 92.92636216 38.10546875 91.1796875 C38.10546875 90.5196875 38.10546875 89.8596875 38.10546875 89.1796875 C37.30109375 88.9115625 36.49671875 88.6434375 35.66796875 88.3671875 C34.82234375 87.9753125 33.97671875 87.5834375 33.10546875 87.1796875 C32.77546875 86.1896875 32.44546875 85.1996875 32.10546875 84.1796875 C30.45055954 83.48434749 28.78207105 82.82095729 27.10546875 82.1796875 C25.2109375 80.65625 25.2109375 80.65625 23.29296875 78.8046875 C18.41794897 74.31540161 13.19524829 70.40579373 7.8659668 66.48095703 C1.9439379 62.11078292 -3.63838563 57.46285103 -9.0859375 52.51171875 C-11.23127753 50.9316735 -13.39724375 50.08041855 -15.89453125 49.1796875 C-18.31202943 51.13700202 -20.72873897 53.09526889 -23.14453125 55.0546875 C-23.87454346 55.64677002 -24.60455566 56.23885254 -25.35668945 56.84887695 C-29.62899103 60.32015123 -33.87039717 63.82263103 -38.08203125 67.3671875 C-42.61925905 71.16864863 -47.26230006 74.78822156 -51.97607422 78.36450195 C-55.82974953 81.30823404 -59.53482389 84.38860193 -63.20703125 87.5546875 C-68.65078677 92.23942987 -74.31568383 96.55953962 -80.08422852 100.83496094 C-86.84833643 105.85799941 -93.33149063 111.18151917 -99.77734375 116.60546875 C-105.41547808 121.33826298 -111.11496662 125.91652432 -116.97705078 130.36572266 C-120.80619465 133.29175585 -124.49324232 136.34805344 -128.14453125 139.4921875 C-133.03464072 143.69511497 -138.06584984 147.66346636 -143.20703125 151.5546875 C-152.67220041 158.72045697 -161.93440895 166.13074958 -171 173.796875 C-177.23356928 179.06302125 -183.6193828 184.00177638 -190.17700195 188.85522461 C-194.53535588 192.10132032 -198.62741978 195.50674336 -202.62890625 199.1875 C-207.00113299 203.0320442 -211.7106608 206.46924978 -216.34277344 209.9921875 C-222.26104646 214.52121204 -228.00251894 219.26110517 -233.70703125 224.0546875 C-238.40865803 227.99079299 -243.20091591 231.77054879 -248.08447266 235.47753906 C-252.75832347 239.03628002 -257.26525391 242.76720975 -261.75 246.5625 C-263.89453125 248.1796875 -263.89453125 248.1796875 -265.89453125 248.1796875 C-266.22453125 249.1696875 -266.55453125 250.1596875 -266.89453125 251.1796875 C-269.21293209 253.05947197 -271.53536831 254.81760354 -273.95703125 256.5546875 C-279.80073938 260.8392827 -285.53345588 265.21906575 -291.14453125 269.8046875 C-291.81145996 270.34955811 -292.47838867 270.89442871 -293.16552734 271.45581055 C-297.16080803 274.73241294 -301.12501877 278.04454495 -305.08203125 281.3671875 C-310.23829445 285.68634931 -315.52811364 289.79286713 -320.88671875 293.85546875 C-323.03833897 295.51808437 -325.09626117 297.20113749 -327.15234375 298.97265625 C-329.89453125 301.1796875 -329.89453125 301.1796875 -331.89453125 301.1796875 C-331.89453125 301.8396875 -331.89453125 302.4996875 -331.89453125 303.1796875 C-333.29980469 304.46069336 -333.29980469 304.46069336 -335.25390625 305.89453125 C-335.95773437 306.41595703 -336.6615625 306.93738281 -337.38671875 307.47460938 C-338.50433594 308.28768555 -338.50433594 308.28768555 -339.64453125 309.1171875 C-340.37414062 309.65537109 -341.10375 310.19355469 -341.85546875 310.74804688 C-343.22538804 311.75805101 -344.59726032 312.76541529 -345.97167969 313.76928711 C-346.6062207 314.23471924 -347.24076172 314.70015137 -347.89453125 315.1796875 C-348.58371651 315.52544604 -349.27290177 315.87120458 -349.98297143 316.22744066 C-352.47724419 318.77480332 -352.382186 320.8071064 -352.4293208 324.27313287 C-352.42041711 325.11559137 -352.41151343 325.95804986 -352.40233994 326.82603741 C-352.40864391 327.72466508 -352.41494788 328.62329275 -352.42144288 329.54915156 C-352.43781976 332.58678963 -352.42550206 335.62365144 -352.41351318 338.66130066 C-352.4193789 340.8447369 -352.42699907 343.02816903 -352.43623352 345.21159363 C-352.45661517 351.24521732 -352.45187807 357.27860753 -352.44332093 363.31225012 C-352.43889045 369.2277772 -352.45333704 375.14325097 -352.46724925 381.05875674 C-352.49492081 393.09242711 -352.50444387 405.12604479 -352.50299072 417.15974426 C-352.50108341 433.43097721 -352.52403906 449.70203533 -352.55126953 465.9732666 C-352.60410953 505.10455024 -352.62217708 544.23587457 -352.64453125 583.3671875 C-352.72703125 670.7553125 -352.80953125 758.1434375 -352.89453125 848.1796875 C-129.81453125 847.8496875 93.26546875 847.5196875 323.10546875 847.1796875 C323.27601995 718.90639434 323.27601995 718.90639434 323.40332031 590.63305664 C323.44873047 565.85437012 323.44873047 565.85437012 323.47503662 554.26365662 C323.49207903 546.14819721 323.49822697 538.03281845 323.49700928 529.91734314 C323.49564266 520.56002887 323.50804019 511.20285411 323.53750764 501.84558424 C323.55215013 497.05796253 323.56056735 492.2705581 323.5512929 487.4829179 C323.54302281 483.15274943 323.5531196 478.82302616 323.57781029 474.49292374 C323.58349688 472.92843747 323.5824635 471.3639091 323.57397985 469.7994355 C323.49648387 454.15314739 323.49648387 454.15314739 328.10546875 447.1796875 C331.19637784 444.1796875 331.19637784 444.1796875 334.10546875 444.1796875 C334.10546875 443.5196875 334.10546875 442.8596875 334.10546875 442.1796875 C341.64835107 439.33907012 348.3206628 438.06050116 356.078125 440.90234375 C362.38135897 444.10244715 366.89716658 449.51233532 369.10546875 456.1796875 C369.35961908 459.48863763 369.35961908 459.48863763 369.36553097 463.34190655 C369.36933664 464.05548513 369.37314231 464.7690637 369.3770633 465.50426587 C369.38739152 467.90173625 369.38347067 470.29897041 369.37962341 472.69645691 C369.38407516 474.43018857 369.38938899 476.16391819 369.39549214 477.89764482 C369.40969032 482.66712015 369.41133508 487.43653037 369.41089523 492.20602381 C369.41254184 497.34797494 369.42560547 502.48989912 369.43708801 507.63183594 C369.4599495 518.87772003 369.46785989 530.12358526 369.47291446 541.36948943 C369.4761702 548.39076694 369.48269195 555.41203896 369.48991585 562.43331337 C369.50948343 581.87119845 369.52588666 601.30907843 369.52879238 620.74697399 C369.52897995 621.9911471 369.52916752 623.23532021 369.52936077 624.51719554 C369.52972703 627.03947024 369.53009073 629.56174493 369.53045189 632.08401962 C369.5306347 633.33609051 369.53081751 634.5881614 369.53100586 635.87817383 C369.53127668 637.75857114 369.53127668 637.75857114 369.53155298 639.67695627 C369.53509482 659.99098972 369.56211717 680.30491717 369.59950375 700.61891385 C369.6375762 721.47237496 369.65694978 742.32578346 369.65725189 763.1792801 C369.65783671 774.88881629 369.66634433 786.59822605 369.69524956 798.30772972 C369.7197492 808.27844395 369.72705586 818.24898564 369.71200203 828.21972182 C369.70482735 833.30656603 369.70571486 838.39306944 369.72841263 843.47987556 C369.74900343 848.13915053 369.74640121 852.79782269 369.72553778 857.45709113 C369.72204309 859.14015469 369.72695204 860.82326176 369.74124222 862.50626829 C369.87864182 879.80716526 369.87864182 879.80716526 364.10546875 887.1796875 C359.12026809 891.24955152 354.50555075 893.30369081 348.02923709 893.307338 C346.97098337 893.31035397 345.91272965 893.31336994 344.82240763 893.3164773 C343.65338155 893.31470783 342.48435548 893.31293836 341.27990437 893.31111526 C340.03788495 893.3131679 338.79586553 893.31522053 337.51620916 893.31733537 C334.04677668 893.32203865 330.5773957 893.32222649 327.10796382 893.32055778 C323.34172192 893.31982868 319.57548707 893.3248449 315.80924815 893.3291328 C308.32950147 893.33672579 300.84976192 893.33890651 293.37001178 893.33946185 C284.4148473 893.34037421 275.45968945 893.34703794 266.50452781 893.35380867 C244.85768127 893.3698842 223.21083542 893.37577367 201.56398398 893.38055742 C191.32767534 893.38289177 181.09136726 893.38649423 170.85505906 893.3902528 C135.82913078 893.40308953 100.80320281 893.41380874 65.77727222 893.4172554 C63.57770009 893.41747704 61.37812796 893.41769882 59.17855583 893.41792075 C56.97360755 893.4181414 54.76865927 893.41836188 52.56371099 893.4185822 C48.14004886 893.41902476 43.71638674 893.41947187 39.29272461 893.41992188 C37.64750264 893.42008596 37.64750264 893.42008596 35.96904386 893.42025336 C0.39617192 893.42388486 -35.17667965 893.4398078 -70.74954379 893.46311224 C-108.3412344 893.48769431 -145.93291337 893.50142748 -183.52461225 893.50262332 C-187.64925945 893.50279478 -191.77390665 893.50301021 -195.89855385 893.50325775 C-196.91419057 893.50331352 -197.92982728 893.50336929 -198.97624087 893.50342675 C-215.33863862 893.5045786 -231.70101551 893.515612 -248.06340621 893.53014481 C-264.50223035 893.5444933 -280.94102769 893.54775613 -297.37985637 893.53970483 C-307.15185421 893.5352408 -316.92376567 893.53914 -326.6957522 893.55494334 C-333.21959485 893.56466926 -339.74337675 893.563538 -346.26721879 893.55350711 C-349.98677441 893.54809778 -353.70616375 893.54746031 -357.42570581 893.56001583 C-361.43051982 893.57342176 -365.43494304 893.56368129 -369.43976116 893.5516243 C-370.59708141 893.55921949 -371.75440166 893.56681468 -372.94679222 893.57464004 C-379.96957333 893.52874213 -386.08744224 893.06679233 -391.8828125 888.671875 C-397.96558548 881.24335579 -399.34629545 873.61432824 -399.27484798 864.20108223 C-399.2795079 863.23162019 -399.28416782 862.26215815 -399.28896895 861.26331848 C-399.30090619 858.01941116 -399.2915282 854.77592365 -399.2822113 851.53201294 C-399.28638476 849.18094626 -399.29186234 846.8298816 -399.29853112 844.47882068 C-399.31148628 838.69811892 -399.31049144 832.91753717 -399.30356873 827.13682778 C-399.29604695 820.21026519 -399.30593033 813.28375474 -399.31627192 806.3571997 C-399.33593436 792.78594929 -399.33828705 779.21473709 -399.33307672 765.64347583 C-399.32851887 753.76576941 -399.32911957 741.8880781 -399.33491707 730.01037216 C-399.33567394 728.41687666 -399.33642992 726.82338116 -399.33718501 725.22988566 C-399.33833021 722.82860441 -399.33948009 720.42732316 -399.34064426 718.02604191 C-399.35134876 695.70206839 -399.35607502 673.3780999 -399.3481741 651.05412483 C-399.34787692 650.21266603 -399.34757975 649.37120723 -399.34727357 648.50424968 C-399.34482466 641.67109299 -399.34221306 634.83793636 -399.33958944 628.00477973 C-399.32948723 601.35163261 -399.3378421 574.69854849 -399.36108398 548.04541016 C-399.38715798 518.09606884 -399.40000414 488.14676546 -399.39289623 458.19741237 C-399.39218018 455.00381971 -399.39150579 451.81022704 -399.39085579 448.61663437 C-399.39068598 447.83029875 -399.39051617 447.04396313 -399.39034122 446.23379916 C-399.38803857 434.36562067 -399.39601358 422.49747739 -399.40914726 410.62930679 C-399.42405784 397.13144405 -399.42490258 383.63366385 -399.40707635 370.13580288 C-399.39835474 363.24842064 -399.39593642 356.36118209 -399.41172791 349.47380829 C-399.42553377 343.16848067 -399.42086425 336.86344633 -399.40148867 330.55813585 C-399.3977158 328.277606 -399.40068751 325.99705289 -399.41110032 323.71654369 C-399.51832967 298.43362177 -399.51832967 298.43362177 -393.02856916 291.05943024 C-390.77757861 288.8882445 -388.39979228 287.0544185 -385.89453125 285.1796875 C-384.58321103 284.18505706 -383.27202319 283.19025208 -381.9609375 282.1953125 C-379.20846596 280.11574482 -376.44138296 278.05793241 -373.6640625 276.01171875 C-371.20416037 274.19499346 -368.84754537 272.31253469 -366.53125 270.31640625 C-363.89453125 268.1796875 -363.89453125 268.1796875 -361.89453125 268.1796875 C-361.5073291 267.27754517 -361.5073291 267.27754517 -361.11230469 266.35717773 C-359.78136536 263.97733654 -358.60365857 262.92754599 -356.41015625 261.33984375 C-355.72179687 260.83388672 -355.0334375 260.32792969 -354.32421875 259.80664062 C-353.60492188 259.29037109 -352.885625 258.77410156 -352.14453125 258.2421875 C-350.73194187 257.21379138 -349.32046683 256.18386273 -347.91015625 255.15234375 C-347.23017578 254.65750488 -346.55019531 254.16266602 -345.84960938 253.65283203 C-344.00504489 252.26295914 -342.25241201 250.80868157 -340.50390625 249.30078125 C-337.89453125 247.1796875 -337.89453125 247.1796875 -335.89453125 247.1796875 C-335.68828125 246.6021875 -335.48203125 246.0246875 -335.26953125 245.4296875 C-333.39395148 242.36055697 -330.89113805 241.15350036 -327.89453125 239.1796875 C-326.0193832 237.66361035 -324.16575165 236.12061841 -322.33203125 234.5546875 C-316.94854983 229.99897306 -311.41671784 225.67612191 -305.8046875 221.40625 C-303.88699947 219.9390256 -301.99751074 218.43407896 -300.140625 216.890625 C-297.89453125 215.1796875 -297.89453125 215.1796875 -295.89453125 215.1796875 C-295.56453125 214.1896875 -295.23453125 213.1996875 -294.89453125 212.1796875 C-292.94761337 210.52642239 -291.01098346 209.00032816 -288.95703125 207.4921875 C-287.77397327 206.60649142 -286.59169073 205.71975868 -285.41015625 204.83203125 C-284.81912109 204.38972168 -284.22808594 203.94741211 -283.61914062 203.49169922 C-280.27686331 200.94903241 -277.05422978 198.25629545 -273.8203125 195.578125 C-271.89453125 194.1796875 -271.89453125 194.1796875 -269.89453125 194.1796875 C-269.55421875 193.2825 -269.55421875 193.2825 -269.20703125 192.3671875 C-267.51703538 189.55052772 -265.73675222 188.84794763 -262.89453125 187.1796875 C-261.77322803 186.22019259 -260.67141089 185.23777948 -259.58203125 184.2421875 C-254.86596257 180.01305516 -249.79775591 176.28976305 -244.70581055 172.53149414 C-241.56342434 170.20653362 -238.4893184 167.8649354 -235.52734375 165.3125 C-232.89453125 163.1796875 -232.89453125 163.1796875 -230.89453125 163.1796875 C-230.63494629 162.57753418 -230.37536133 161.97538086 -230.10791016 161.35498047 C-228.79321506 158.99805224 -227.64559418 157.95229302 -225.48046875 156.375 C-224.80113281 155.87355469 -224.12179687 155.37210938 -223.421875 154.85546875 C-222.71160156 154.34371094 -222.00132812 153.83195313 -221.26953125 153.3046875 C-220.23892578 152.54865234 -220.23892578 152.54865234 -219.1875 151.77734375 C-216.37215697 149.71205459 -213.54942997 147.65691654 -210.72753906 145.60058594 C-207.1744625 142.97984194 -203.9861204 140.34154004 -200.89453125 137.1796875 C-198.82734428 135.50638345 -196.75075661 133.86446201 -194.64453125 132.2421875 C-188.43452502 127.41532659 -182.31390112 122.48735598 -176.22558594 117.50805664 C-167.25244284 110.1796875 -167.25244284 110.1796875 -164.89453125 110.1796875 C-164.68828125 109.6021875 -164.48203125 109.0246875 -164.26953125 108.4296875 C-162.39258985 105.35832885 -159.89482108 104.1597366 -156.89453125 102.1796875 C-154.82639213 100.51412508 -152.78851977 98.83926595 -150.76953125 97.1171875 C-141.40493244 89.1796875 -141.40493244 89.1796875 -138.89453125 89.1796875 C-138.66765625 88.5815625 -138.44078125 87.9834375 -138.20703125 87.3671875 C-136.51703538 84.55052772 -134.73675222 83.84794763 -131.89453125 82.1796875 C-130.77322803 81.22019259 -129.67141089 80.23777948 -128.58203125 79.2421875 C-123.86596257 75.01305516 -118.79775591 71.28976305 -113.70581055 67.53149414 C-108.57664333 63.73657191 -103.69821029 59.75790666 -98.89453125 55.5546875 C-95.30849587 52.47293835 -91.60835002 49.54230844 -87.89453125 46.6171875 C-87.02248047 45.92858643 -87.02248047 45.92858643 -86.1328125 45.22607422 C-83.20779883 42.93289637 -80.25576305 40.71631793 -77.20703125 38.58984375 C-74.48358981 36.66710316 -72.22965092 34.5661798 -69.89453125 32.1796875 C-67.82734428 30.50638345 -65.75075661 28.86446201 -63.64453125 27.2421875 C-57.43452502 22.41532659 -51.31390112 17.48735598 -45.22558594 12.50805664 C-36.25244284 5.1796875 -36.25244284 5.1796875 -33.89453125 5.1796875 C-33.65476562 4.57511719 -33.415 3.97054687 -33.16796875 3.34765625 C-31.61563065 0.70487205 -30.21262688 -0.08968739 -27.51953125 -1.5078125 C-26.74867188 -1.92417969 -25.9778125 -2.34054688 -25.18359375 -2.76953125 C-16.3418207 -6.82829738 -7.93400404 -4.98953561 0 0 Z " fill="#FDFDFD" transform="translate(519.89453125,72.8203125)"/>
<path d="M0 0 C4.92566034 3.67009986 9.81756785 7.38145142 14.6875 11.125 C15.23365967 11.54442871 15.77981934 11.96385742 16.3425293 12.39599609 C25.91912386 19.7679803 25.91912386 19.7679803 30 24 C29.01 24 28.02 24 27 24 C27 23.34 27 22.68 27 22 C26.443125 21.938125 25.88625 21.87625 25.3125 21.8125 C22.06205385 20.67045135 20.38412628 18.44372943 18 16 C15.83379456 14.70480005 15.83379456 14.70480005 14 14 C14 13.34 14 12.68 14 12 C13.44828125 11.7525 12.8965625 11.505 12.328125 11.25 C9.54863293 9.75765526 7.2185293 7.96327477 4.75 6 C3.85796875 5.29875 2.9659375 4.5975 2.046875 3.875 C1.37140625 3.25625 0.6959375 2.6375 0 2 C0 1.34 0 0.68 0 0 Z " fill="#E9E9E9" transform="translate(789,289)"/>
<path d="M0 0 C1.32 0.66 2.64 1.32 4 2 C0.25588846 6.44545808 -3.36369744 10.45459216 -8 14 C-8.33 14.66 -8.66 15.32 -9 16 C-9.66 16 -10.32 16 -11 16 C-9.06489161 11.33234845 -5.52521715 8.51333402 -1.8984375 5.12109375 C0.33345759 3.1018657 0.33345759 3.1018657 0 0 Z " fill="#E8E8E8" transform="translate(274,549)"/>
<path d="M0 0 C6.85650192 4.95097285 12.47618101 9.79539939 17 17 C13.45566346 15.58226538 12.66193881 14.32387762 11 11 C9.67592331 10.31513275 8.34090759 9.65129797 7 9 C3.89333283 6.1892059 1.75366326 3.78083363 0 0 Z " fill="#E7E7E7" transform="translate(745,562)"/>
<path d="M0 0 C3.11373372 1.49920512 6.12228205 3.08152136 9 5 C9 5.66 9 6.32 9 7 C9.556875 7.2475 10.11375 7.495 10.6875 7.75 C13.39971127 9.21606015 15.63587365 11.02989471 18 13 C17.67 13.66 17.34 14.32 17 15 C14.34946085 12.88081578 11.70540488 10.75369484 9.0625 8.625 C8.30775391 8.02171875 7.55300781 7.4184375 6.77539062 6.796875 C6.05673828 6.21679688 5.33808594 5.63671875 4.59765625 5.0390625 C3.60004272 4.23782959 3.60004272 4.23782959 2.58227539 3.42041016 C1 2 1 2 0 0 Z " fill="#EAEAEA" transform="translate(689,267)"/>
<path d="M0 0 C0.66 0 1.32 0 2 0 C2 0.66 2 1.32 2 2 C2.639375 2.103125 3.27875 2.20625 3.9375 2.3125 C4.618125 2.539375 5.29875 2.76625 6 3 C6.33 3.99 6.66 4.98 7 6 C9.01508358 6.73323796 9.01508358 6.73323796 11 7 C11 7.66 11 8.32 11 9 C11.639375 9.28875 12.27875 9.5775 12.9375 9.875 C15 11 15 11 16 13 C11.69484714 11.55183158 8.68002467 9.38004712 5.1875 6.5 C4.21167969 5.7059375 3.23585938 4.911875 2.23046875 4.09375 C1.49441406 3.4028125 0.75835938 2.711875 0 2 C0 1.34 0 0.68 0 0 Z " fill="#EDEDED" transform="translate(521,132)"/>
<path d="M0 0 C3.8288537 1.57973684 6.28773759 4.02060457 9.1875 6.9375 C10.50814453 8.25041016 10.50814453 8.25041016 11.85546875 9.58984375 C14 12 14 12 15 15 C10.37227805 13.45742602 7.85169023 10.07713764 4.875 6.3125 C3.03438927 3.80846331 3.03438927 3.80846331 0 2 C0 1.34 0 0.68 0 0 Z " fill="#E9E9E9" transform="translate(671,533)"/>
<path d="M0 0 C4.32046898 1.41680244 7.00461199 3.53763785 10.3125 6.625 C11.19550781 7.44226563 12.07851563 8.25953125 12.98828125 9.1015625 C13.65214844 9.72804688 14.31601562 10.35453125 15 11 C14.67 11.66 14.34 12.32 14 13 C12.2925002 11.71937515 10.62626404 10.38232443 9 9 C9 8.34 9 7.68 9 7 C8.360625 6.896875 7.72125 6.79375 7.0625 6.6875 C6.381875 6.460625 5.70125 6.23375 5 6 C4.67 5.01 4.34 4.02 4 3 C1.98491642 2.26676204 1.98491642 2.26676204 0 2 C0 1.34 0 0.68 0 0 Z " fill="#EEEEEE" transform="translate(838,329)"/>
<path d="M0 0 C0.33 0.66 0.66 1.32 1 2 C-2.42166518 6.70478962 -6.57905197 10.27653164 -11 14 C-11.66 13.67 -12.32 13.34 -13 13 C-8.71 8.71 -4.42 4.42 0 0 Z " fill="#EDEDED" transform="translate(327,543)"/>
<path d="M0 0 C11.86816556 7.58916709 11.86816556 7.58916709 16 12 C16 12.66 16 13.32 16 14 C15.01 13.67 14.02 13.34 13 13 C13 12.34 13 11.68 13 11 C12.43796875 10.7421875 11.8759375 10.484375 11.296875 10.21875 C8.73295421 8.85830223 6.54773635 7.27211038 4.25 5.5 C3.45078125 4.8915625 2.6515625 4.283125 1.828125 3.65625 C1.22484375 3.1096875 0.6215625 2.563125 0 2 C0 1.34 0 0.68 0 0 Z " fill="#EBEBEB" transform="translate(855,342)"/>
<path d="M0 0 C0.66 0.33 1.32 0.66 2 1 C1.278125 1.70125 0.55625 2.4025 -0.1875 3.125 C-2.99823813 5.92770745 -5.49516226 8.92262792 -8 12 C-8.33 11.01 -8.66 10.02 -9 9 C-6.34691575 5.36148445 -3.76827587 2.51218391 0 0 Z " fill="#ECECEC" transform="translate(133,359)"/>
<path d="M0 0 C-2.475 1.485 -2.475 1.485 -5 3 C-4.01 3.99 -3.02 4.98 -2 6 C-2.33 6.99 -2.66 7.98 -3 9 C-7.875 4.375 -7.875 4.375 -9 1 C-5.57367167 -0.61798838 -3.61944899 -1.34053666 0 0 Z " fill="#EEEEEE" transform="translate(741,549)"/>
<path d="M0 0 C0.33 0.66 0.66 1.32 1 2 C1.60328125 2.29648437 2.2065625 2.59296875 2.828125 2.8984375 C5.30329117 4.15382753 6.83031196 5.63147781 8.75 7.625 C9.36359375 8.25664062 9.9771875 8.88828125 10.609375 9.5390625 C11.29773438 10.26222656 11.29773438 10.26222656 12 11 C8.09022541 11 7.18581533 9.75543882 4.3125 7.1875 C3.50425781 6.47980469 2.69601562 5.77210938 1.86328125 5.04296875 C0 3 0 3 0 0 Z " fill="#EDEDED" transform="translate(637,499)"/>
<path d="M0 0 C0.66 0.33 1.32 0.66 2 1 C1.01 1.33 0.02 1.66 -1 2 C-1.33 2.99 -1.66 3.98 -2 5 C-2.97753644 6.02196992 -3.9805881 7.01979625 -5 8 C-6.01800576 9.31963709 -7.02248365 10.65009646 -8 12 C-7.55396127 6.94489444 -5.35299176 4.59833262 -2 1 C-1.34 0.67 -0.68 0.34 0 0 Z " fill="#E9E9E9" transform="translate(252,503)"/>
<path d="M0 0 C4.41889613 1.35021826 6.34345343 3.26115668 9 7 C8.01 7.495 8.01 7.495 7 8 C4.35247996 5.42215154 2.05567935 3.08351902 0 0 Z " fill="#F4F4F4" transform="translate(663,526)"/>
<path d="M0 0 C0.66 0.33 1.32 0.66 2 1 C0.625 3.5 0.625 3.5 -1 6 C-1.66 6 -2.32 6 -3 6 C-3.33 6.99 -3.66 7.98 -4 9 C-3.38461538 3.46153846 -3.38461538 3.46153846 -1.4375 1.125 C-0.963125 0.75375 -0.48875 0.3825 0 0 Z " fill="#ECECEC" transform="translate(706,500)"/>
<path d="M0 0 C2.94956528 1.36944102 5.52468811 2.87830409 8 5 C8 5.66 8 6.32 8 7 C7.34 7 6.68 7 6 7 C5.67 6.34 5.34 5.68 5 5 C4.154375 4.505 3.30875 4.01 2.4375 3.5 C1.633125 3.005 0.82875 2.51 0 2 C0 1.34 0 0.68 0 0 Z " fill="#EDEDED" transform="translate(671,195)"/>
<path d="M0 0 C3.81684226 1.55500981 6.19195732 4.03595495 9 7 C5.13066838 6.42676569 2.84777943 4.61046448 0 2 C0 1.34 0 0.68 0 0 Z " fill="#E8E8E8" transform="translate(519,73)"/>
<path d="M0 0 C0 0.99 0 1.98 0 3 C-3 5.1875 -3 5.1875 -6 7 C-5.8125 5.1875 -5.8125 5.1875 -5 3 C-2.4375 1.25 -2.4375 1.25 0 0 Z " fill="#ECECEC" transform="translate(387,156)"/>
</svg>
