<svg xmlns="http://www.w3.org/2000/svg" viewBox="0 0 64 64">
  <defs>
    <linearGradient id="g" x1="0" y1="0" x2="1" y2="1">
      <stop offset="0" stop-color="#1dd15d"/>
      <stop offset="1" stop-color="#13824c"/>
    </linearGradient>
  </defs>
  <rect width="64" height="64" rx="14" fill="url(#g)"/>
  <path d="M32 18c-7.7 0-14 5.9-14 13.1 0 3.4 1.5 6.5 3.9 8.9l-1.7 6.2 6.1-1.7c2.2 1.2 4.7 1.9 7.4 1.9 7.7 0 14-5.9 14-13.1S39.7 18 32 18zm7.9 18.4c-.4.9-2.2 2.1-3.1 2.2-.8.1-.7.6-4.6-.9s-5.8-4.8-6-5-.9-1.3-.9-2.4 1-1.5 1.3-1.7c.4-.2.9-.3 1.3 0s1.7 2.1 2 2.5c.3.4.4.6.1 1-.3.4-.5.6-.8 1s0 .7.3 1c.4.3 1.6 2.6 4 3.6.4.2.7.2 1-.1.3-.4 1.1-1.2 1.4-1.6s.6-.4 1-.2c.4.1 2.8 1.3 2.8 1.3.4.1.7.2.8.5.1.3.1 1.1-.3 2z" fill="#fff"/>
</svg>

