<?xml version="1.0" encoding="UTF-8"?>
<svg id="Calque_1" data-name="Calque 1" xmlns="http://www.w3.org/2000/svg" viewBox="0 0 512 512">
  <defs>
    <style>
      .cls-1 {
        fill: #fcfefd;
      }

      .cls-2 {
        fill: #fff;
      }
    </style>
  </defs>
  <g>
    <path class="cls-1" d="M299.58,87.04v30c-8.22-.96-16.27-3.9-24.53-4.97-62.35-8.03-124.25,26.98-149.67,84.27-20.21,45.56-14.69,99.21,13.23,140.18l-14.03,51.52,4.28-.22,49.19-12.82,17.52,9.56c81.25,39,182.02-10.36,200.77-98.26,5.11-23.98,4.59-48.84-2.75-72.25h31c-.06,3.6,1.32,7.06,1.96,10.54,3.4,18.35,3.82,35.33,1.01,53.94-18.1,119.48-146.64,184.95-253.62,127.69l-91.35,23.84,24.08-88.5c-3.38-8.58-8.27-16.72-11.58-25.5-28.85-76.53-.61-162.86,68.16-206.84,40.6-25.97,89.52-33.39,136.34-22.16Z"/>
    <polygon class="cls-1" points="383.58 128.04 423.58 128.04 423.58 158.04 383.58 158.04 383.58 198.54 382.08 200.04 355.08 200.04 353.58 198.54 353.58 158.04 313.58 158.04 313.58 128.04 353.58 128.04 353.58 87.54 355.08 86.04 382.08 86.04 383.58 87.54 383.58 128.04"/>
  </g>
  <path class="cls-2" d="M310.55,223.29c.27-6.46,5.03-7.02,10.38-6.17,13.03,2.07,7.83,12.53-1.49,14.58,1.7,1.93,3.59,3.69,5.39,5.52,5.22,5.32,9.35,11.55,9.96,19.32.5,6.36.48,17.14.01,23.53-.3,4.13-2.31,8.02-5,11.08.17,6.28.89,15.19-7.6,15.92-3.04.26-9.51.32-12.49,0-4.83-.52-7.81-5.48-7.32-10.08h-91.68c.74,4.71-2.46,9.6-7.32,10.08-2.77.27-10.5.36-13.14-.06-7.68-1.2-7.07-10.28-6.95-16.09-3.14-3.33-4.71-7.73-5-12.28-.44-6.85-.63-20.41,1.09-26.77,2.31-8.57,7.83-14.13,14.28-19.8.08-.51-.08-.28-.33-.38-1.15-.46-2.11-.66-3.27-1.29-6.92-3.75-8.21-10.85.72-12.96,5.46-1.29,11.76-1.27,11.88,5.88l15.26-14.5c2.86-2.18,6.18-3.43,9.73-3.95l57.58-.04c3.86.46,7.32,1.94,10.41,4.23l14.9,14.26ZM309.59,233.85c-1.63-2.08-3.78-3.69-5.65-5.51-3.75-3.66-11.57-12.52-15.96-14.28-1.08-.43-2.29-.8-3.47-.85l-57.02.12c-2.62.54-4.75,1.85-6.71,3.61l-17.04,16.92h105.84ZM192.42,246.64c-8.87,1.05-10.23,14.16-1.69,17.16,2.68.94,11.4.73,14.6.54,4.01-.24,11.32-1.27,7.17-6.71-3.2-4.2-14.79-11.62-20.07-10.99ZM318.9,246.63c-4.64.61-16.32,7.74-18.61,11.86-.97,1.74-1.22,2.87.59,4.11,3.1,2.12,15.43,2.07,19.4,1.72,12.01-1.07,9.59-19.14-1.37-17.69ZM292.31,258.09h-71.52c.21,5.73,2.28,12.71,8.34,14.58l55.46-.11c5.62-2.1,7.87-8.92,7.72-14.48Z"/>
</svg>